<svg xmlns="http://www.w3.org/2000/svg" viewBox="0 0 100 95" fill="none" stroke="#000" stroke-width="3" stroke-linejoin="round" stroke-linecap="round">
  <!-- Outer triangle -->
  <path d="M50,5 L13,54 L87,54 Z"/>
  <!-- Inner triangle -->
  <path d="M50,19 L30,54 L70,54 Z"/>

  <!-- Left cube - top face -->
  <path d="M2,62 L26,49 L50,62 L26,75 Z"/>
  <!-- Left cube - front-left face -->
  <path d="M2,62 L2,80 L26,92 L26,75 Z"/>
  <!-- Left cube - front-right face -->
  <path d="M26,75 L26,92 L50,80 L50,62 Z"/>

  <!-- Right cube - top face -->
  <path d="M50,62 L74,49 L98,62 L74,75 Z"/>
  <!-- Right cube - front-left face -->
  <path d="M50,62 L50,80 L74,92 L74,75 Z"/>
  <!-- Right cube - front-right face -->
  <path d="M74,75 L74,92 L98,80 L98,62 Z"/>

  <!-- Arc/eye on left cube top (triangle intersection) -->
  <path d="M15,56 Q26,49 37,56"/>
  <path d="M15,56 Q26,63 37,56"/>

  <!-- Arc/eye on right cube top -->
  <path d="M63,56 Q74,49 85,56"/>
  <path d="M63,56 Q74,63 85,56"/>

  <!-- Triangle edges into cube tops -->
  <path d="M13,54 L26,49"/>
  <path d="M87,54 L74,49"/>
  <path d="M30,54 L26,75"/>
  <path d="M70,54 L74,75"/>

  <!-- Center vertical where cubes meet -->
  <path d="M50,62 L50,80"/>

  <!-- Center bottom diamond -->
  <path d="M26,75 L50,62 L74,75"/>
  <path d="M26,75 L50,87 L74,75"/>

  <!-- Inner triangle base through center -->
  <path d="M38,54 L50,62 L62,54"/>
</svg>
